HIERARCHY
ROOT Hips
{
	OFFSET 0.000000 0.000000 0.000000
	CHANNELS 6 Xposition Yposition Zposition Zrotation Yrotation Xrotation 
	JOINT LHipJoint
	{
		OFFSET 0.000000 0.000000 0.000000
		CHANNELS 3 Zrotation Yrotation Xrotation
		JOINT LeftUpLeg
		{
			OFFSET 1.363060 -1.794630 0.839290
			CHANNELS 3 Zrotation Yrotation Xrotation
			JOINT LeftLeg
			{
				OFFSET 2.448110 -6.726130 0.000000
				CHANNELS 3 Zrotation Yrotation Xrotation
				JOINT LeftFoot
				{
					OFFSET 2.562200 -7.039590 0.000000
					CHANNELS 3 Zrotation Yrotation Xrotation
					JOINT LeftToeBase
					{
						OFFSET 0.157640 -0.433110 2.322550
						CHANNELS 3 Zrotation Yrotation Xrotation
						End Site
						{
							OFFSET 0.000000 0.000000 0.000000
						}
					}
				}
			}
		}
	}
	JOINT RHipJoint
	{
		OFFSET 0.000000 0.000000 0.000000
		CHANNELS 3 Zrotation Yrotation Xrotation
		JOINT RightUpLeg
		{
			OFFSET -1.305520 -1.794630 0.839290
			CHANNELS 3 Zrotation Yrotation Xrotation
			JOINT RightLeg
			{
				OFFSET -2.542530 -6.985550 0.000000
				CHANNELS 3 Zrotation Yrotation Xrotation
				JOINT RightFoot
				{
					OFFSET -2.568260 -7.056230 0.000000
					CHANNELS 3 Zrotation Yrotation Xrotation
					JOINT RightToeBase
					{
						OFFSET -0.164730 -0.452590 2.363150
						CHANNELS 3 Zrotation Yrotation Xrotation
						End Site
						{
							OFFSET 0.000000 0.000000 0.000000
						}
					}
				}
			}
		}
	}
	JOINT LowerBack
	{
		OFFSET 0.000000 0.000000 0.000000
		CHANNELS 3 Zrotation Yrotation Xrotation
		JOINT Spine
		{
			OFFSET 0.028270 2.035590 -0.193380
			CHANNELS 3 Zrotation Yrotation Xrotation
			JOINT Spine1
			{
				OFFSET 0.056720 2.048850 -0.042750
				CHANNELS 3 Zrotation Yrotation Xrotation
				JOINT Neck
				{
					OFFSET 0.000000 0.000000 0.000000
					CHANNELS 3 Zrotation Yrotation Xrotation
					JOINT Neck1
					{
						OFFSET -0.054170 1.746240 0.172020
						CHANNELS 3 Zrotation Yrotation Xrotation
						JOINT Head
						{
							OFFSET 0.104070 1.761360 -0.123970
							CHANNELS 3 Zrotation Yrotation Xrotation
							End Site
							{
								OFFSET 0.000000 0.000000 0.000000
							}
						}
					}
				}
				JOINT LeftShoulder
				{
					OFFSET 0.000000 0.000000 0.000000
					CHANNELS 3 Zrotation Yrotation Xrotation
					JOINT LeftArm
					{
						OFFSET 3.362410 1.200890 -0.311210
						CHANNELS 3 Zrotation Yrotation Xrotation
						JOINT LeftForeArm
						{
							OFFSET 4.983000 -0.000000 -0.000000
							CHANNELS 3 Zrotation Yrotation Xrotation
							JOINT LeftHand
							{
								OFFSET 3.483560 -0.000000 -0.000000
								CHANNELS 3 Zrotation Yrotation Xrotation
								JOINT LeftFingerBase
								{
									OFFSET 0.000000 0.000000 0.000000
									CHANNELS 3 Zrotation Yrotation Xrotation
									JOINT LeftHandIndex1
									{
										OFFSET 0.715260 -0.000000 -0.000000
										CHANNELS 3 Zrotation Yrotation Xrotation
										End Site
										{
											OFFSET 0.000000 0.000000 0.000000
										}
									}
								}
								JOINT LThumb
								{
									OFFSET 0.000000 0.000000 0.000000
									CHANNELS 3 Zrotation Yrotation Xrotation
									End Site
									{
										OFFSET 0.000000 0.000000 0.000000
									}
								}
							}
						}
					}
				}
				JOINT RightShoulder
				{
					OFFSET 0.000000 0.000000 0.000000
					CHANNELS 3 Zrotation Yrotation Xrotation
					JOINT RightArm
					{
						OFFSET -3.136600 1.374050 -0.404650
						CHANNELS 3 Zrotation Yrotation Xrotation
						JOINT RightForeArm
						{
							OFFSET -5.241900 -0.000000 -0.000000
							CHANNELS 3 Zrotation Yrotation Xrotation
							JOINT RightHand
							{
								OFFSET -3.444170 -0.000000 -0.000000
								CHANNELS 3 Zrotation Yrotation Xrotation
								JOINT RightFingerBase
								{
									OFFSET 0.000000 0.000000 0.000000
									CHANNELS 3 Zrotation Yrotation Xrotation
									JOINT RightHandIndex1
									{
										OFFSET -0.622530 -0.000000 -0.000000
										CHANNELS 3 Zrotation Yrotation Xrotation
										End Site
										{
											OFFSET 0.000000 0.000000 0.000000
										}
									}
								}
								JOINT RThumb
								{
									OFFSET 0.000000 0.000000 0.000000
									CHANNELS 3 Zrotation Yrotation Xrotation
									End Site
									{
										OFFSET 0.000000 0.000000 0.000000
									}
								}
							}
						}
					}
				}
			}
		}
	}
}
MOTION
Frames: 9
Frame Time: 0.008333
27.016802 17.638686 -9.539607 -179.228137 -18.964610 -154.991193 10.465918 1.073052 -2.705264 -24.895289 -17.147852 -35.228222 7.611569 19.910663 56.625960 0.956649 -3.937255 -21.803755 1.518200 -7.780700 -22.049800 -14.653658 -2.713325 -1.097406 30.329979 19.352793 -28.400582 1.156393 -5.981452 10.840673 -0.500094 -2.573092 -14.852413 -0.199700 2.877500 -7.937800 -2.165087 0.592914 -21.647546 1.179312 0.507944 -4.137102 -1.167364 -0.487431 16.061891 -11.418861 0.436102 -2.009585 13.011005 -3.810184 27.191112 2.801000 -0.900800 5.684600 15.976495 -1.097397 1.222867 -103.534777 1.253932 6.811161 11.358889 -13.052124 -1.518081 -1.590494 1.065488 7.355874 19.725492 -11.734806 -4.863300 -7.125000 0.000000 0.000000 -4.032300 16.587400 2.720200 -11.341994 -0.200431 0.015198 95.280815 3.330154 13.949818 -18.915453 30.641732 -6.629100 0.259289 3.755535 -5.771664 -12.112549 -51.898570 10.561700 7.125000 0.000000 0.000000 76.691200 -76.529100 -62.869300 
27.027939 17.647202 -9.582190 -179.176685 -19.370640 -154.856561 10.462874 1.060946 -2.693412 -24.870850 -17.271520 -35.596085 7.212416 19.727310 55.400538 1.076791 -3.471021 -22.354249 1.833400 -8.510000 -24.274200 -14.615352 -2.736750 -1.143093 30.604068 18.735143 -28.783695 1.126355 -6.197620 11.400692 -0.504759 -2.095617 -15.200449 -0.145200 2.455800 -6.767100 -2.058110 0.762811 -21.558161 1.141595 0.703734 -4.130693 -1.222404 -0.381251 15.971936 -11.289595 0.437008 -1.817544 12.860752 -3.824644 27.290155 2.726200 -0.908800 5.671900 16.003292 -1.124464 1.216952 -103.557579 1.153231 7.634752 11.527148 -13.312585 -1.587504 -1.611057 1.166782 6.204064 19.845023 -13.110273 -5.468400 -7.125000 0.000000 0.000000 -4.004900 14.980700 2.840600 -11.345844 -0.161261 0.021751 95.073641 3.720243 13.946895 -18.807065 30.509062 -6.577910 0.307548 3.764192 -5.608110 -12.716390 -51.859326 11.093300 7.125000 0.000000 0.000000 76.433800 -76.763600 -62.880400 
27.042243 17.652662 -9.625757 -179.322908 -19.695557 -154.602743 10.471010 1.056179 -2.678363 -25.069481 -17.388827 -35.975279 6.796406 19.528663 54.119475 1.232613 -2.784423 -22.989714 2.106000 -9.083400 -26.056500 -14.590681 -2.765679 -1.196911 30.750246 18.123424 -28.678654 1.128380 -6.026403 11.026875 -0.499805 -2.040950 -15.076101 -0.225200 3.054900 -8.431700 -2.170000 0.915837 -21.595690 1.058852 0.953074 -4.128999 -1.265062 -0.267667 15.940568 -11.337239 0.455703 -1.740235 12.990810 -3.852072 27.222836 2.774800 -0.919900 5.636900 16.006590 -1.172654 1.206826 -103.517338 0.961575 8.100275 11.637896 -13.482662 -1.631878 -1.616266 1.211227 5.640021 19.866606 -13.759066 -5.742200 -7.125000 0.000000 0.000000 -4.025300 14.229300 2.919700 -11.365650 -0.153716 0.019827 95.026190 4.054837 13.788008 -18.743892 30.429386 -6.550577 0.340780 3.780868 -5.392039 -13.098707 -52.114882 11.465800 7.125000 0.000000 0.000000 77.539700 -76.940200 -64.144900 
27.056438 17.659541 -9.667794 -179.595361 -20.053088 -154.226744 10.487797 1.046329 -2.656720 -25.340557 -17.669911 -36.356563 6.356718 19.301531 52.742481 1.350121 -2.469866 -23.720972 2.083700 -9.038200 -25.915000 -14.583577 -2.777089 -1.247018 30.721362 17.698962 -28.383243 1.153859 -5.676040 10.193964 -0.495582 -2.425844 -14.725799 -0.406700 4.093900 -11.341100 -2.388176 1.000778 -21.692857 0.955090 1.159170 -4.131229 -1.340586 -0.193678 15.946822 -11.565220 0.442453 -2.224712 13.217837 -3.895298 27.761132 2.925400 -0.918400 5.925900 15.995421 -1.181421 1.186274 -103.370230 0.685240 8.603559 11.727168 -13.596610 -1.661450 -1.622143 1.148928 5.256304 19.871782 -13.353777 -5.569400 -7.125000 0.000000 0.000000 -4.003600 14.711400 2.862800 -11.393585 -0.100261 0.011329 94.946547 4.512292 13.868125 -18.685708 30.360054 -6.523611 0.322860 3.802345 -5.648549 -13.143543 -52.484504 11.555200 7.125000 0.000000 0.000000 79.226500 -76.985100 -65.837300 
27.066374 17.670678 -9.705464 -179.620475 -20.506837 -154.031183 10.490352 1.015596 -2.661210 -25.375396 -17.812892 -36.552596 5.905567 19.015821 51.284270 1.458068 -2.534456 -24.713423 1.664700 -8.129700 -23.108600 -14.580627 -2.774072 -1.268631 30.778062 17.636037 -28.249712 1.178346 -5.556639 9.901107 -0.511336 -2.819540 -14.859287 -0.376400 3.940300 -10.908900 -2.389051 1.131221 -21.650867 0.920771 1.336515 -4.096913 -1.335308 -0.100495 15.984447 -11.187675 0.434977 -1.439757 13.037976 -3.915273 26.831840 2.738200 -0.946600 5.445100 16.017441 -1.301582 1.189537 -103.334112 0.357741 9.453799 11.877900 -13.804079 -1.714017 -1.641887 1.054271 4.466704 19.903850 -12.848777 -5.358800 -7.125000 0.000000 0.000000 -3.955400 15.319600 2.776600 -11.382634 -0.119895 0.014522 94.622748 5.029342 14.271513 -18.638578 30.279705 -6.493897 0.278393 3.815092 -5.986337 -12.684185 -52.683696 11.177100 7.125000 0.000000 0.000000 80.171100 -76.819500 -66.580100 
27.075655 17.682470 -9.740405 -179.513929 -20.867470 -154.052916 10.462436 1.008997 -2.660989 -25.342867 -17.689843 -36.479351 5.404229 18.631318 49.604316 1.563415 -2.695440 -25.731250 0.895300 -6.030800 -16.873900 -14.574436 -2.759682 -1.301893 30.963851 17.592689 -28.140361 1.184377 -5.607977 10.069770 -0.531155 -2.928405 -15.230832 -0.263900 3.304800 -9.128600 -2.246120 1.267109 -21.441506 0.914575 1.491889 -4.041205 -1.326953 -0.043896 16.054040 -11.387502 0.217708 -2.546406 12.727027 -3.871652 27.578696 2.733700 -0.896100 5.943700 16.010350 -1.217170 1.158525 -103.425318 0.020090 9.784397 11.991139 -13.952237 -1.755375 -1.639716 1.049582 4.194165 19.899678 -12.926808 -5.386900 -7.125000 0.000000 0.000000 -3.966800 15.234000 2.791900 -11.390780 0.020581 -0.000776 94.337203 5.469783 14.547386 -18.734085 30.392714 -6.549258 0.275160 3.815143 -5.907243 -12.550047 -52.737696 11.063900 7.125000 0.000000 0.000000 80.414200 -76.769800 -66.763900 
27.085154 17.688912 -9.780040 -179.497400 -21.233378 -153.987046 10.445697 1.000800 -2.657970 -25.407074 -17.591484 -36.456053 4.893911 18.235116 47.876547 1.721896 -2.064321 -26.487643 0.787500 -5.664900 -15.815300 -14.554706 -2.769417 -1.328738 31.168722 17.404619 -27.973529 1.191822 -5.605122 10.119828 -0.550476 -3.079344 -15.546861 -0.305200 3.551700 -9.818700 -2.182797 1.423326 -21.292385 0.870674 1.679237 -4.052766 -1.411373 0.058174 15.867086 -11.276768 0.133051 -2.005598 12.435332 -4.010948 27.471571 2.601200 -0.996100 5.792300 16.020733 -1.275417 1.163887 -103.438021 -0.157422 9.780771 12.017934 -13.984438 -1.765957 -1.638446 1.087043 4.371784 19.987000 -13.183183 -5.521800 -7.125000 0.000000 0.000000 -3.917700 14.919200 2.783600 -11.422237 0.034883 -0.001037 94.289255 5.410315 14.788878 -19.082891 30.790172 -6.749746 0.304915 3.768047 -6.014155 -12.951548 -52.018295 11.329300 7.125000 0.000000 0.000000 77.057800 -76.875800 -63.607000 
27.092142 17.691424 -9.827756 -179.438930 -21.679697 -153.756065 10.436429 0.980700 -2.656965 -25.353424 -17.592800 -36.634414 4.413850 17.870111 46.240634 1.886415 -1.227779 -27.177763 0.828900 -5.808500 -16.229700 -14.538270 -2.776430 -1.345311 31.440743 17.226863 -27.903276 1.209945 -5.569772 10.051079 -0.578239 -3.229249 -16.044559 -0.342300 3.759700 -10.401700 -2.109177 1.535696 -21.464256 0.838293 1.795455 -4.087190 -1.487740 0.118232 15.804842 -11.169855 0.202057 -1.924425 12.327239 -3.900550 27.490274 2.553300 -0.938400 5.774900 16.046744 -1.278262 1.157497 -103.385582 -0.125613 10.284880 12.141005 -14.174104 -1.814905 -1.643856 1.046858 4.076869 20.011223 -13.021203 -5.453800 -7.125000 0.000000 0.000000 -3.893500 15.122600 2.749400 -11.445834 0.046812 -0.004533 94.257660 5.335671 15.213923 -19.313223 31.061325 -6.886282 0.373201 3.699715 -6.270225 -14.010487 -50.630138 12.069800 7.125000 0.000000 0.000000 70.459200 -77.083900 -57.547700 
27.096947 17.694809 -9.870667 -179.391373 -22.183324 -153.524449 10.431829 0.953467 -2.659488 -25.311435 -17.646171 -36.743078 3.947787 17.478395 44.599773 2.008178 -0.732129 -27.842633 0.522900 -4.634100 -12.867800 -14.544829 -2.771875 -1.350377 31.596795 17.298473 -27.581247 1.252056 -5.334407 9.472349 -0.599684 -3.776175 -16.305421 -0.395600 4.038300 -11.184300 -2.004711 1.639324 -21.585631 0.812431 1.889256 -4.120252 -1.558216 0.169852 15.718734 -11.081055 0.270142 -1.836334 12.140795 -3.752517 27.463285 2.486300 -0.868100 5.742700 16.079382 -1.272560 1.146912 -103.375468 -0.005949 11.035881 12.345340 -14.491955 -1.898013 -1.639986 0.958829 3.516221 19.894753 -12.604155 -5.231600 -7.125000 0.000000 0.000000 -3.963700 15.653100 2.753900 -11.467256 0.062280 -0.006446 94.139899 5.389591 15.747291 -19.444899 31.222981 -6.971476 0.410975 3.691796 -6.650932 -14.987265 -50.314393 12.874700 7.125000 0.000000 0.000000 68.664400 -77.411200 -56.221500 
